<?xml version="1.0" encoding="utf-8"?>
<!-- Generator: Adobe Illustrator 17.0.0, SVG Export Plug-In . SVG Version: 6.00 Build 0)  -->
<!DOCTYPE svg PUBLIC "-//W3C//DTD SVG 1.1//EN" "http://www.w3.org/Graphics/SVG/1.1/DTD/svg11.dtd">
<svg version="1.1" xmlns="http://www.w3.org/2000/svg" xmlns:xlink="http://www.w3.org/1999/xlink" x="0px" y="0px"
	 width="257.167px" height="262.571px" viewBox="0 0 257.167 262.571" style="enable-background:new 0 0 257.167 262.571;"
	 xml:space="preserve">
<symbol  id="New_Symbol_1" viewBox="-96.268 -44.101 192.002 196.036">
	<polygon style="fill:#0A3C55;" points="-27.451,-4.71 -26.177,-9.478 -21.405,-8.203 -22.682,-3.431 	"/>
	<polygon style="fill:#0A3C55;" points="-11.907,-15.022 -15.088,-15.878 -14.233,-19.054 -11.056,-18.202 	"/>
	<polygon style="fill:#0A3C55;" points="-15.981,-15.683 -17.26,-10.91 -22.036,-12.19 -20.757,-16.957 	"/>
	<polygon style="fill:#0A3C55;" points="-8.057,-18.257 -16.799,-20.603 -14.457,-29.345 -5.716,-27.003 	"/>
	<polygon style="fill:#0A3C55;" points="2.208,-29.549 1.357,-26.368 -1.82,-27.218 -0.969,-30.396 	"/>
	<polygon style="fill:#0A3C55;" points="2.117,-30.857 2.975,-34.034 6.156,-33.183 5.3,-30.006 	"/>
	<polygon style="fill:#0A3C55;" points="-1.193,-34.312 -0.549,-36.692 1.835,-36.056 1.195,-33.673 	"/>
	<polygon style="fill:#0A3C55;" points="-11.546,-30.691 -9.736,-37.448 -2.584,-35.529 -4.391,-28.777 	"/>
	<polygon style="fill:#0A3C55;" points="-17.439,-24.603 -19.25,-17.846 -26.405,-19.765 -24.594,-26.521 	"/>
	<polygon style="fill:#0A3C55;" points="-33.757,-9.802 -32.261,-15.367 -26.696,-13.875 -28.191,-8.31 	"/>
	<polygon style="fill:#0A3C55;" points="-29.019,-24.283 -30.72,-17.925 -37.082,-19.627 -35.379,-25.981 	"/>
	<polygon style="fill:#0A3C55;" points="-40.824,-10.417 -46.384,-11.908 -44.894,-17.473 -39.329,-15.982 	"/>
	<polygon style="fill:#0A3C55;" points="-42.836,-22.027 -42.088,-24.81 -39.306,-24.062 -40.053,-21.284 	"/>
	<polygon style="fill:#0A3C55;" points="-39.483,-31.363 -40.334,-28.182 -43.511,-29.034 -42.659,-32.21 	"/>
	<polygon style="fill:#0A3C55;" points="-34.021,-29.47 -32.634,-34.635 -27.07,-33.141 -28.457,-27.979 	"/>
	<polygon style="fill:#0A3C55;" points="-24.821,-30.412 -22.794,-37.958 -15.242,-35.936 -17.268,-28.385 	"/>
	<polygon style="fill:#0A3C55;" points="-32.439,-40.13 -31.376,-44.101 -27.399,-43.037 -28.469,-39.063 	"/>
	<polygon style="fill:#0A3C55;" points="-41.461,-38.273 -40.076,-43.44 -35.306,-42.165 -36.691,-36.995 	"/>
	<polygon style="fill:#0A3C55;" points="-40.828,-34.266 -42.811,-34.798 -42.283,-36.783 -40.296,-36.252 	"/>
	<polygon style="fill:#0A3C55;" points="-18.683,-38.992 -18.045,-41.381 -15.661,-40.74 -16.301,-38.357 	"/>
	<polygon style="fill:#0A3C55;" points="-48.847,-20.241 -48.212,-22.622 -45.824,-21.987 -46.468,-19.602 	"/>
	<polygon style="fill:#0A3C55;" points="27.219,124.003 -4.615,115.475 -8.331,129.339 23.502,137.868 	"/>
	<g>
		<path style="fill:#1772A2;" d="M74.765,32.712h0.005L69.445,52.58l-9.668-2.589l9.672,2.592L58.802,92.325L7.115,78.471
			l-23.827-6.383v0.004l-55.52-14.875l-0.001,0.003l38.435,10.295l-5.322,19.865l4.589,1.229l5.347,1.432l36.157,9.689
			l-8.499,31.723h0.004l8.503-31.722l46.499,12.46L42.83,151.935l-46.497-12.46l0.049-0.186h-0.004l-0.049,0.183l-36.159-9.688
			l-0.002,0.001l-56.436-15.122l10.652-39.735l5.32-19.869l0.113,0.03l0.001-0.001l-0.114-0.031l10.623-39.656l46.496,12.459
			l0.023-0.087l32.197,8.625l0.004-0.004l13.9,3.725l5.324-19.858L-9.079,10.252l0.004-0.008l-19.077-5.113l-0.002,0.004
			l-2.782-0.743l0.004-0.008h-0.008l0.01-0.012l1.273-4.747l2.754,0.735l0.033-0.034l1.8-6.714l3.897,1.043l0.116-0.116l1.561-5.822
			l3.181,0.854l-0.091,0.337l0.295-0.295l-0.204-0.054l2.658-9.934l5.964,1.599l-0.004,0.008l0.017-0.016l1.167-4.365l2.367,0.632
			l1.175-4.369l2.704,0.723l0.133-0.133l0.914-3.411l1.979,0.528l0.008,0.004L2.738-29.08l32.973,8.833l0.025-0.095L85.413-7.036
			L74.765,32.712z M-4.129-22.509L-4.2-22.248l0.221-0.219L-4.129-22.509z"/>
		<polygon style="fill:#1772A2;" points="-37.779,1.274 -36.5,-3.493 -31.733,-2.215 -33.01,2.552 		"/>
		<polygon style="fill:#1772A2;" points="-22.219,-9.046 -25.4,-9.897 -24.547,-13.079 -21.367,-12.227 		"/>
		<polygon style="fill:#1772A2;" points="-26.305,-9.71 -27.584,-4.939 -32.354,-6.217 -31.075,-10.986 		"/>
		<polygon style="fill:#1772A2;" points="-18.386,-12.29 -27.13,-14.628 -24.785,-23.373 -16.044,-21.027 		"/>
		<polygon style="fill:#1772A2;" points="-8.103,-23.568 -8.959,-20.388 -12.139,-21.239 -11.289,-24.424 		"/>
		<polygon style="fill:#1772A2;" points="-8.174,-24.877 -7.323,-28.058 -4.146,-27.206 -4.997,-24.026 		"/>
		<polygon style="fill:#1772A2;" points="-11.509,-28.327 -10.869,-30.712 -8.485,-30.071 -9.125,-27.688 		"/>
		<polygon style="fill:#1772A2;" points="-21.878,-24.707 -20.061,-31.463 -12.908,-29.545 -14.723,-22.788 		"/>
		<polygon style="fill:#1772A2;" points="-27.761,-18.61 -29.57,-11.854 -36.725,-13.772 -34.918,-20.524 		"/>
		<polygon style="fill:#1772A2;" points="-44.071,-3.81 -42.58,-9.375 -37.016,-7.883 -38.506,-2.323 		"/>
		<polygon style="fill:#1772A2;" points="-39.341,-18.307 -41.044,-11.949 -47.406,-13.656 -45.699,-20.014 		"/>
		<polygon style="fill:#1772A2;" points="-51.152,-4.445 -56.712,-5.936 -55.22,-11.504 -49.655,-10.014 		"/>
		<polygon style="fill:#1772A2;" points="-52.41,-18.825 -49.632,-18.078 -50.375,-15.295 -53.16,-16.044 		"/>
		<polygon style="fill:#1772A2;" points="-49.792,-25.38 -50.643,-22.202 -53.822,-23.054 -52.971,-26.23 		"/>
		<polygon style="fill:#1772A2;" points="-44.328,-23.494 -42.944,-28.656 -37.379,-27.17 -38.764,-22.003 		"/>
		<polygon style="fill:#1772A2;" points="-35.155,-24.428 -33.131,-31.978 -25.579,-29.952 -27.607,-22.401 		"/>
		<polygon style="fill:#1772A2;" points="-42.767,-34.129 -41.7,-38.1 -37.726,-37.036 -38.791,-33.062 		"/>
		<polygon style="fill:#1772A2;" points="-51.781,-32.281 -50.4,-37.448 -45.626,-36.172 -47.011,-31.007 		"/>
		<polygon style="fill:#1772A2;" points="-51.152,-28.295 -53.139,-28.826 -52.603,-30.81 -50.614,-30.28 		"/>
		<polygon style="fill:#1772A2;" points="-29.013,-33.016 -28.377,-35.4 -25.99,-34.76 -26.63,-32.377 		"/>
		<polygon style="fill:#1772A2;" points="-59.167,-14.254 -58.531,-16.637 -56.15,-16.002 -56.783,-13.614 		"/>
	</g>
	<polygon style="fill:#0A3C55;" points="85.085,26.723 85.006,26.701 85.006,26.71 85.089,26.731 79.761,46.598 79.769,46.6 
		69.121,86.343 8.713,70.155 8.713,70.151 -6.392,66.104 -6.392,66.111 -23.482,61.532 -28.801,81.401 17.293,93.749 17.19,94.134 
		17.19,94.134 17.293,93.753 63.793,106.212 53.146,145.954 6.645,133.495 6.733,133.167 6.645,133.492 -29.515,123.804 
		-29.515,123.808 -85.946,108.687 -75.301,68.946 -28.809,81.405 -28.809,81.401 -75.301,68.945 -69.977,49.073 -59.354,9.418 
		-12.858,21.88 -12.833,21.785 19.362,30.414 19.503,30.452 33.265,34.14 38.585,14.272 38.739,14.314 38.739,14.306 38.598,14.268 
		38.598,14.272 1.523,4.334 -17.834,-0.849 -17.834,-0.849 -20.616,-1.596 -20.616,-1.6 -20.618,-1.6 -20.612,-1.604 
		-19.337,-6.359 -16.583,-5.62 -16.546,-5.657 -14.744,-12.389 -10.836,-11.343 -10.74,-11.442 -9.175,-17.268 -6.01,-16.426 
		-3.348,-26.359 2.619,-24.761 2.615,-24.743 2.636,-24.765 2.628,-24.769 3.797,-29.142 6.185,-28.498 6.11,-28.229 6.343,-28.456 
		6.193,-28.498 7.368,-32.871 10.051,-32.148 10.176,-32.273 11.098,-35.696 13.075,-35.163 13.054,-35.075 46.035,-26.244 
		46.056,-26.33 95.733,-13.021 	"/>
</symbol>
<g id="Layer_1">
</g>
<g id="specctr">
	<g id="Object_Properties">
	</g>
	<g id="Dimensions">
	</g>
	
		<use xlink:href="#New_Symbol_1"  width="192.002" height="196.036" id="XMLID_1_" x="-96.268" y="-44.101" transform="matrix(1.3164 0 0 -1.3164 128.725 202.5176)" style="overflow:visible;"/>
</g>
</svg>
